<?xml version="1.0" encoding="UTF-8" standalone="no"?>
<!-- Created with Inkscape (http://www.inkscape.org/) -->

<svg
   width="58.161541mm"
   height="22.007959mm"
   viewBox="0 0 58.161541 22.007959"
   version="1.1"
   id="svg1"
   xml:space="preserve"
   xmlns="http://www.w3.org/2000/svg"
   xmlns:svg="http://www.w3.org/2000/svg"><defs
     id="defs1" /><g
     id="layer1"
     transform="translate(152.27602,-578.11626)"><g
       id="g45"
       transform="translate(-0.52916667,59.120019)"><path
         id="path45"
         style="fill:#007ff3;fill-opacity:1;stroke-width:0.119567;stroke-linecap:round;stroke-linejoin:round;paint-order:stroke fill markers"
         d="m -146.47478,518.99623 c -0.56317,0 -1.01648,0.4533 -1.01648,1.01647 v 19.97449 5.2e-4 c 0,0.56318 0.45331,1.01648 1.01648,1.01648 0.21119,0 0.40676,-0.0637 0.56896,-0.17312 0.27018,-0.18223 0.44734,-0.49211 0.44752,-0.84388 V 520.0127 c 0,-0.56317 -0.45331,-1.01647 -1.01648,-1.01647 z m -4.25555,3.26647 c -0.0352,0 -0.0701,0.002 -0.10439,0.006 -0.34257,0.0346 -0.63348,0.23742 -0.78962,0.52555 -7e-5,1.3e-4 7e-5,3.9e-4 0,5.2e-4 -0.0311,0.0575 -0.0573,0.11831 -0.077,0.1819 -5e-5,1.5e-4 4e-5,3.6e-4 0,5.1e-4 -0.0295,0.0955 -0.0455,0.19741 -0.0455,0.30283 v 13.44104 c 0,0.0352 0.002,0.0696 0.005,0.10387 1e-5,1.7e-4 -2e-5,3.4e-4 0,5.1e-4 0.0208,0.20534 0.10234,0.39223 0.22634,0.54261 9e-5,1e-4 -9e-5,4.1e-4 0,5.1e-4 0.18616,0.22559 0.46832,0.36897 0.78497,0.36897 0.56317,0 1.01647,-0.4533 1.01647,-1.01647 v -13.44104 c 0,-0.52798 -0.39824,-0.95944 -0.91209,-1.01131 -0.0343,-0.003 -0.0692,-0.006 -0.10438,-0.006 z m 8.5111,0 c -0.38718,0 -0.72277,0.21429 -0.89452,0.53123 v 5.2e-4 c -0.0311,0.0575 -0.0568,0.11831 -0.0765,0.1819 v 5.1e-4 c -0.0295,0.0955 -0.046,0.19741 -0.046,0.30283 v 13.44104 c 0,0.0352 0.002,0.0696 0.006,0.10387 v 5.1e-4 c 0.0208,0.20534 0.10234,0.39223 0.22634,0.54261 v 5.1e-4 c 0.18616,0.22559 0.46832,0.36897 0.78496,0.36897 0.31665,0 0.59881,-0.1439 0.78497,-0.36948 0.124,-0.15038 0.20551,-0.33778 0.22634,-0.54312 0.003,-0.0343 0.005,-0.0687 0.005,-0.10387 v -13.44104 c 0,-0.1056 -0.0159,-0.20773 -0.0455,-0.30334 -0.0197,-0.0636 -0.0458,-0.12494 -0.077,-0.18242 -0.15619,-0.28792 -0.44772,-0.49098 -0.79014,-0.52555 -0.0342,-0.003 -0.0687,-0.006 -0.10387,-0.006 z" /></g><text
       xml:space="preserve"
       style="font-style:italic;font-weight:bold;font-size:14.1111px;line-height:1.2;font-family:Raleway;-inkscape-font-specification:'Raleway Bold Italic';text-align:center;text-anchor:middle;opacity:1;fill:#333333;stroke-width:0.28919;stroke-linecap:round;stroke-linejoin:round;paint-order:stroke fill markers"
       x="-115.48572"
       y="594.09698"
       id="text47"><tspan
         id="tspan47"
         style="font-style:normal;font-variant:normal;font-weight:normal;font-stretch:normal;font-family:Raleway;-inkscape-font-specification:Raleway;stroke-width:0.28919"
         x="-115.48572"
         y="594.09698">Relyze</tspan></text></g></svg>
